<svg xmlns="http://www.w3.org/2000/svg" viewBox="0 0 1080.5 300.39"><defs><style>.cls-1{font-size:258.26px;fill:#d32a26;font-family:Yellowtail, Yellowtail;}.cls-2{stroke:#000;stroke-miterlimit:10;}</style></defs><title>Asset 7</title><g id="Layer_2" data-name="Layer 2"><g id="Layer_1-2" data-name="Layer 1"><text class="cls-1" transform="translate(229.71 222.39) scale(0.86 1)">Sabrozzini</text><path class="cls-2" d="M94.69,298.85c-13.46-2.23-24.92-7.69-35.49-15.91-40.4-31.41-48.73-93.8-19.29-138.62,3.79-5.77,5.5-10.42,3.31-17.87-2.31-7.89-2.52-16.62-3.83-26.42C24.74,99.17,2.42,93.63.5,71.32c0-13.38,21.57-21.15,34.76-23.86C27,25.55,30.82,15.76,50.42,8.1,56.71,5.65,63.08,2.94,69.7,2.17,87.44.11,82.27,0,98,1.7a43.15,43.15,0,0,1,8.43,1.8c5.7,1.83,11.39,3.66,16.93,6,20.41,8.47,22,29.36,22,29.36s16.18-2.48,24.34-1.68c13.16,1.29,21.77,9.49,23.18,20.75,1.52,12.11-5.45,24.45-17.46,30-4.68,2.16-9.74,3.19-13.51,4.39,0,10.24-.26,20.12.16,30a14.66,14.66,0,0,0,3.49,8.34c25,27.6,34.26,61.09,24.68,99.4-9.54,38.13-33.14,60.46-66.72,68.91A97.61,97.61,0,0,1,94.69,298.85ZM187,195.56c-.17-17.37-8.24-38.83-23.65-56.87-4.48-5.25-8.62-7-15.19-5-29.07,8.81-58.76,11-88.62,8.12-6.71-.64-10.61,1.43-14.5,7.33-20.26,30.76-21.15,73.11-1.89,105.15,19.52,32.48,55.64,46.83,88.44,35.15S186.91,242.7,187,195.56ZM135.06,57.13c.8-2.69,1.65-5.36,2.41-8.07,3.68-13.11,1.09-23.68-9.53-29.08C100.55,6.08,72.55,5.91,45,19.55,35.1,24.48,34.6,32,41.83,41.63c2.53,3.36,5,6.74,9.11,12.21-5.93.82-9.3,1.09-12.61,1.78-6.59,1.37-13.49,2-19.59,4.81-4.28,2-10.16,7-10.42,11C8,76.49,12,82.83,15.56,86.94c2.93,3.39,7.8,5.2,12.07,6.2,7.46,1.76,15.12,2.36,19.9,3,.77,9.91,1.4,19.58,2.3,29.22.57,6,3.51,8.39,9,8.87a243.16,243.16,0,0,0,80.25-6c17.17-4.24,21-11.55,14.38-30.59-1.79-5.18-7.5-8.53-11.07-12.34,2,0,5.11.47,8.06-.09,8.42-1.59,17.21-2.31,25-5.82C183,76,187.67,67.92,185.92,57.87c-1.67-9.63-9-12.38-16.19-12.91C157.18,44,144.14,42.73,135.06,57.13Z"/><path class="cls-2" d="M70,247.13c3.3-14,7.35-21.9,17.35-26.52,5.16-2.38,15.07-.08,16.87,5.65,3.88,12.36-.62,20.7-1.2,22-4.17,9.63-3.05,12.27,5.88,12,19.28-.58,37.21-4.56,46.53-28,1.36-1.58,1.48,1.41,1.36,2.22-1.61,10.62-7.57,19.58-16.12,24.43-21.68,12.31-43.7,12.81-65.49.3-9-5.14-13.94-13.89-17.68-24.95-.93-2.75-3.22-9,.32-9.34h0c1.57-.3,2.2,6.74,5.86,13.33a7.53,7.53,0,0,0,.47.73ZM88.71,257.9a2.82,2.82,0,0,0,4.23-1.53c2.4-6,4.31-10.07,5.27-14.46.89-4,2.25-10,0-12.91-3.56-3.77-10.29-1.73-12.24.77-3.91,5-9.18,14-8.62,20C77.72,253.26,84.24,254.85,88.71,257.9Z"/><path class="cls-2" d="M148.06,186.43c-10-16.45-15.76-16.22-26.15-.49a2.52,2.52,0,0,1-4.52-.29c-1.72-3.66-.87-7.1,2.57-11.65,6.26-8.27,19.54-9.94,27.19-2.79,3.87,3.62,7.05,7.89,5.81,14.08C152.41,187.95,149.43,188.66,148.06,186.43Z"/><path class="cls-2" d="M70.13,168.76l17.65,15.41c1.12,1.87,1.12,3.77-.79,4.33l-32.81,8.77c-1.29.17-2.93-1.73-1.34-4.43a208.35,208.35,0,0,1,24.6-8.69c-2.28-3.69-8.06-8.15-10.37-11.9C67.38,168.78,69.25,168.94,70.13,168.76Z"/></g></g></svg>