<svg xmlns="http://www.w3.org/2000/svg" viewBox="0 0 180.5 55.89"><defs><style>.cls-1{font-size:47.35px;fill:#d32a26;font-family:Yellowtail, Yellowtail;}.cls-2{stroke:#000;stroke-miterlimit:10;}</style></defs><title>Asset 6</title><g id="Layer_2" data-name="Layer 2"><g id="Layer_1-2" data-name="Layer 1"><text class="cls-1" transform="translate(38.7 41.18) scale(0.78 1)">Sabrozzini</text><path class="cls-2" d="M16.2,55.2a12.33,12.33,0,0,1-5.92-2.92c-6.73-5.76-8.12-17.2-3.21-25.41a3.75,3.75,0,0,0,.55-3.28A37.77,37.77,0,0,1,7,18.74C4.54,18.59.82,17.57.5,13.48.5,11,4.09,9.61,6.29,9.11c-1.38-4-.74-5.81,2.53-7.22A12.41,12.41,0,0,1,12,.81C15,.43,14.13.4,16.74.72A6.63,6.63,0,0,1,18.15,1c.95.34,1.9.67,2.82,1.09a6.8,6.8,0,0,1,3.67,5.38,20.81,20.81,0,0,1,4.06-.31A4.16,4.16,0,0,1,32.56,11a5.52,5.52,0,0,1-2.91,5.5,16.53,16.53,0,0,1-2.25.8c0,1.88,0,3.69,0,5.49A2.83,2.83,0,0,0,28,24.34a20.35,20.35,0,0,1,4.11,18.22C30.53,49.56,26.6,53.65,21,55.2A14.81,14.81,0,0,1,16.2,55.2ZM31.58,36.26a18.11,18.11,0,0,0-3.94-10.43,2,2,0,0,0-2.53-.92,34.74,34.74,0,0,1-14.77,1.49,2.23,2.23,0,0,0-2.42,1.34A20,20,0,0,0,7.6,47c3.25,6,9.27,8.59,14.74,6.44S31.57,44.9,31.58,36.26ZM22.93,10.88c.13-.49.27-1,.4-1.48.61-2.4.18-4.34-1.59-5.33A13.55,13.55,0,0,0,7.92,4c-1.65.9-1.74,2.29-.53,4l1.52,2.24c-1,.15-1.55.2-2.1.33a13.51,13.51,0,0,0-3.27.88c-.71.37-1.69,1.28-1.74,2A4.91,4.91,0,0,0,3,16.35a3.73,3.73,0,0,0,2,1.14A31.18,31.18,0,0,0,8.34,18c.13,1.82.23,3.59.38,5.36.09,1.11.58,1.54,1.5,1.63a37,37,0,0,0,13.37-1.1c2.86-.78,3.49-2.12,2.4-5.61-.3-.95-1.25-1.56-1.84-2.26a6,6,0,0,0,1.34,0A17,17,0,0,0,29.66,15a3.6,3.6,0,0,0,1.74-4,2.65,2.65,0,0,0-2.7-2.37C26.61,8.48,24.44,8.24,22.93,10.88Z"/><path class="cls-2" d="M12.09,45.72c.55-2.56,1.23-4,2.89-4.86a2.18,2.18,0,0,1,2.81,1,5.8,5.8,0,0,1-.2,4c-.69,1.77-.51,2.25,1,2.2,3.21-.11,6.2-.84,7.75-5.14.23-.29.25.26.23.41a6.2,6.2,0,0,1-2.69,4.48A9.58,9.58,0,0,1,13,47.93C11.46,47,10.63,45.38,10,43.36c-.15-.5-.54-1.65.05-1.71h0c.26-.06.37,1.24,1,2.44l.08.13Zm3.11,2a.46.46,0,0,0,.71-.28,18.81,18.81,0,0,0,.88-2.65c.15-.74.38-1.83,0-2.37a1.41,1.41,0,0,0-2,.14,6.93,6.93,0,0,0-1.44,3.67C13.37,46.84,14.46,47.13,15.2,47.69Z"/><path class="cls-2" d="M25.09,34.59c-1.67-3-2.63-3-4.36-.09a.41.41,0,0,1-.75-.05,2.08,2.08,0,0,1,.43-2.14,3,3,0,0,1,4.53-.51,2.8,2.8,0,0,1,1,2.58C25.82,34.87,25.32,35,25.09,34.59Z"/><path class="cls-2" d="M12.11,31.35,15,34.17c.19.34.19.69-.13.79L9.45,36.57c-.22,0-.49-.32-.22-.81a32.62,32.62,0,0,1,4.1-1.59c-.38-.68-1.34-1.49-1.73-2.18C11.65,31.35,12,31.38,12.11,31.35Z"/></g></g></svg>