<svg xmlns="http://www.w3.org/2000/svg" viewBox="0 0 941.14 302.77"><defs><style>.cls-1{font-size:231.8px;fill:#d32a26;font-family:Yellowtail, Yellowtail;}.cls-2{stroke:#000;stroke-miterlimit:10;}</style></defs><title>Asset 8</title><g id="Layer_2" data-name="Layer 2"><g id="Layer_1-2" data-name="Layer 1"><text class="cls-1" transform="translate(177.5 232.93) scale(0.86 1)">Sabrozzini</text><path class="cls-2" d="M79.44,240.93A65.91,65.91,0,0,1,49.69,228.1C15.83,202.79,8.85,152.52,33.53,116.39c3.18-4.65,4.61-8.39,2.77-14.4-1.94-6.36-2.11-13.4-3.21-21.29C20.82,80,2.11,75.55.5,57.57c0-10.79,18.08-17,29.13-19.23C22.71,20.68,25.91,12.8,42.33,6.63,47.61,4.65,53,2.47,58.5,1.85,73.36.19,69,.06,82.18,1.46a37.42,37.42,0,0,1,7.07,1.45C94,4.39,98.8,5.86,103.44,7.71a29.61,29.61,0,0,1,18.47,23.66s13.56-2,20.4-1.35c11,1,18.24,7.64,19.42,16.72,1.27,9.76-4.57,19.7-14.63,24.16-3.92,1.74-8.17,2.57-11.32,3.54,0,8.26-.22,16.21.14,24.14a11.58,11.58,0,0,0,2.92,6.72c20.93,22.24,28.72,49.23,20.68,80.1s-27.78,48.72-55.92,55.53A85,85,0,0,1,79.44,240.93Zm77.33-83.24c-.15-14-6.9-31.29-19.82-45.83-3.76-4.23-7.23-5.64-12.73-4-24.36,7.1-49.25,8.84-74.27,6.55-5.62-.52-8.89,1.15-12.15,5.91-17,24.79-17.73,58.91-1.58,84.74,16.36,26.17,46.63,37.74,74.12,28.33S156.73,195.68,156.77,157.69ZM113.27,46.13c.67-2.17,1.38-4.32,2-6.5,3.08-10.57.91-19.09-8-23.43C84.35,5,60.88,4.86,37.82,15.86c-8.32,4-8.74,10.05-2.68,17.79,2.12,2.7,4.22,5.43,7.63,9.84-5,.66-7.79.88-10.57,1.43C26.68,46,20.89,46.5,15.78,48.79,12.19,50.4,7.26,54.41,7,57.69c-.27,4,3.09,9.15,6.07,12.46,2.46,2.73,6.53,4.19,10.11,5,6.25,1.42,12.67,1.9,16.67,2.45.64,8,1.17,15.78,1.93,23.54.48,4.87,2.94,6.76,7.55,7.15a211.69,211.69,0,0,0,67.25-4.84c14.39-3.42,17.57-9.31,12-24.65-1.5-4.17-6.29-6.87-9.27-9.95a34.26,34.26,0,0,0,6.75-.07c7.05-1.28,14.42-1.86,21-4.69,6.31-2.72,10.22-9.26,8.75-17.37-1.4-7.76-7.56-10-13.57-10.4C131.81,35.58,120.88,34.54,113.27,46.13Z"/><path class="cls-2" d="M58.78,199.25c2.77-11.25,6.16-17.65,14.54-21.37,4.33-1.92,12.63-.06,14.14,4.55,3.25,10-.52,16.68-1,17.75-3.49,7.76-2.56,9.89,4.92,9.67,16.16-.47,31.19-3.68,39-22.59,1.14-1.27,1.24,1.14,1.14,1.79A27,27,0,0,1,118,208.74c-18.17,9.92-36.62,10.32-54.89.24-7.51-4.15-11.68-11.19-14.82-20.1-.78-2.22-2.7-7.27.27-7.53h0c1.32-.25,1.85,5.43,4.91,10.74a6,6,0,0,0,.39.59Zm15.65,8.68A2.4,2.4,0,0,0,78,206.7c2-4.8,3.61-8.12,4.41-11.65.74-3.26,1.89-8,0-10.4-3-3-8.63-1.39-10.26.62-3.28,4-7.69,11.27-7.23,16.12C65.21,204.19,70.68,205.47,74.43,207.93Z"/><path class="cls-2" d="M124.17,150.33c-8.41-13.25-13.21-13.07-21.92-.4a2.15,2.15,0,0,1-3.79-.24c-1.45-3-.73-5.72,2.15-9.39,5.24-6.67,16.38-8,22.79-2.25,3.24,2.91,5.91,6.36,4.87,11.35A2.22,2.22,0,0,1,124.17,150.33Z"/><path class="cls-2" d="M58.86,136.09l14.79,12.42c.94,1.51.94,3-.66,3.49l-27.5,7.07c-1.08.14-2.46-1.39-1.12-3.57a179.45,179.45,0,0,1,20.62-7c-1.91-3-6.75-6.57-8.69-9.59C56.55,136.11,58.12,136.24,58.86,136.09Z"/></g></g></svg>